<?xml version="1.0" encoding="iso-8859-1"?>
<!-- Generator: Adobe Illustrator 19.0.0, SVG Export Plug-In . SVG Version: 6.00 Build 0)  -->
<svg version="1.1" id="Layer_1" xmlns="http://www.w3.org/2000/svg" xmlns:xlink="http://www.w3.org/1999/xlink" x="0px" y="0px"
	 viewBox="0 0 512 512" style="enable-background:new 0 0 512 512;" xml:space="preserve">
<path style="fill:#A5A5A5;" d="M512,256v44.522H189.217V256c0-12.295,9.966-22.261,22.261-22.261h278.261
	C502.034,233.739,512,243.705,512,256z"/>
<path style="fill:#777777;" d="M453.565,261.009v1.113c0,4.61-3.738,8.348-8.348,8.348s-8.348-3.738-8.348-8.348v-1.113
	c0-4.61,3.738-8.348,8.348-8.348S453.565,256.398,453.565,261.009z M478.609,252.661c-4.61,0-8.348,3.738-8.348,8.348v1.113
	c0,4.61,3.738,8.348,8.348,8.348s8.348-3.738,8.348-8.348v-1.113C486.957,256.398,483.219,252.661,478.609,252.661z"/>
<path style="fill:#FED766;" d="M512,289.391v200.348c0,12.295-9.966,22.261-22.261,22.261H211.478
	c-12.295,0-22.261-9.966-22.261-22.261V289.391h44.522v-66.783c0-6.147,4.983-11.13,11.13-11.13h66.783
	c6.147,0,11.13,4.983,11.13,11.13v66.783H512z"/>
<path style="fill:#E8BA52;" d="M478.609,384v89.043c0,3.073-2.492,5.565-5.565,5.565h-244.87c-3.073,0-5.565-2.492-5.565-5.565V384
	c0-3.073,2.492-5.565,5.565-5.565h244.87C476.117,378.435,478.609,380.927,478.609,384z M473.043,333.913h-244.87
	c-3.073,0-5.565,2.492-5.565,5.565v11.13c0,3.073,2.492,5.565,5.565,5.565h244.87c3.073,0,5.565-2.492,5.565-5.565v-11.13
	C478.609,336.405,476.117,333.913,473.043,333.913z"/>
<path style="fill:#A5A5A5;" d="M417.391,150.261v50.087H94.609v-50.087c0-12.295,9.966-22.261,22.261-22.261H395.13
	C407.425,128,417.391,137.966,417.391,150.261z"/>
<path style="fill:#A3CCAA;" d="M417.391,183.652V384c0,12.295-9.966,22.261-22.261,22.261H116.87
	c-12.295,0-22.261-9.966-22.261-22.261V183.652h44.522V116.87c0-6.147,4.983-11.13,11.13-11.13h66.783
	c6.147,0,11.13,4.983,11.13,11.13v66.783H417.391z"/>
<path style="fill:#777777;" d="M358.957,155.27v1.113c0,4.61-3.738,8.348-8.348,8.348s-8.348-3.738-8.348-8.348v-1.113
	c0-4.61,3.738-8.348,8.348-8.348S358.957,150.659,358.957,155.27z M384,146.922c-4.61,0-8.348,3.738-8.348,8.348v1.113
	c0,4.61,3.738,8.348,8.348,8.348c4.61,0,8.348-3.738,8.348-8.348v-1.113C392.348,150.659,388.61,146.922,384,146.922z"/>
<path style="fill:#80A886;" d="M378.435,372.87h-244.87c-3.073,0-5.565-2.492-5.565-5.565v-89.043c0-3.073,2.492-5.565,5.565-5.565
	h244.87c3.073,0,5.565,2.492,5.565,5.565v89.043C384,370.377,381.508,372.87,378.435,372.87z M384,244.87v-11.13
	c0-3.073-2.492-5.565-5.565-5.565h-244.87c-3.073,0-5.565,2.492-5.565,5.565v11.13c0,3.073,2.492,5.565,5.565,5.565h244.87
	C381.508,250.435,384,247.943,384,244.87z"/>
<path style="fill:#A5A5A5;" d="M322.783,44.522v44.522H0V44.522c0-12.295,9.966-22.261,22.261-22.261h278.261
	C312.816,22.261,322.783,32.227,322.783,44.522z"/>
<path style="fill:#777777;" d="M230.957,49.53v1.113c0,4.61-3.738,8.348-8.348,8.348c-4.61,0-8.348-3.738-8.348-8.348V49.53
	c0-4.61,3.738-8.348,8.348-8.348C227.219,41.183,230.957,44.92,230.957,49.53z M256,41.183c-4.61,0-8.348,3.738-8.348,8.348v1.113
	c0,4.61,3.738,8.348,8.348,8.348s8.348-3.738,8.348-8.348V49.53C264.348,44.92,260.61,41.183,256,41.183z M289.391,41.183
	c-4.61,0-8.348,3.738-8.348,8.348v1.113c0,4.61,3.738,8.348,8.348,8.348s8.348-3.738,8.348-8.348V49.53
	C297.739,44.92,294.002,41.183,289.391,41.183z"/>
<path style="fill:#FCBB9A;" d="M322.783,77.913v200.348c0,12.295-9.966,22.261-22.261,22.261H22.261
	C9.966,300.522,0,290.556,0,278.261V77.913h44.522V11.13C44.522,4.983,49.505,0,55.652,0h66.783c6.147,0,11.13,4.983,11.13,11.13
	v66.783H322.783z"/>
<path style="fill:#FC8059;" d="M133.565,11.13v66.783H44.522V11.13C44.522,4.983,49.505,0,55.652,0h66.783
	C128.582,0,133.565,4.983,133.565,11.13z"/>
<path style="fill:#F75631;" d="M105.739,44.522H72.348c-3.073,0-5.565-2.492-5.565-5.565v-11.13c0-3.073,2.492-5.565,5.565-5.565
	h33.391c3.073,0,5.565,2.492,5.565,5.565v11.13C111.304,42.03,108.812,44.522,105.739,44.522z"/>
<path style="fill:#FC8059;" d="M283.826,267.13H38.957c-3.073,0-5.565-2.492-5.565-5.565v-89.043c0-3.073,2.492-5.565,5.565-5.565
	h244.87c3.073,0,5.565,2.492,5.565,5.565v89.043C289.391,264.638,286.899,267.13,283.826,267.13z M111.304,139.13V128
	c0-3.073-2.492-5.565-5.565-5.565H38.957c-3.073,0-5.565,2.492-5.565,5.565v11.13c0,3.073,2.492,5.565,5.565,5.565h66.783
	C108.812,144.696,111.304,142.204,111.304,139.13z M289.391,139.13V128c0-3.073-2.492-5.565-5.565-5.565H139.13
	c-3.073,0-5.565,2.492-5.565,5.565v11.13c0,3.073,2.492,5.565,5.565,5.565h144.696C286.899,144.696,289.391,142.204,289.391,139.13z
	"/>
<g>
</g>
<g>
</g>
<g>
</g>
<g>
</g>
<g>
</g>
<g>
</g>
<g>
</g>
<g>
</g>
<g>
</g>
<g>
</g>
<g>
</g>
<g>
</g>
<g>
</g>
<g>
</g>
<g>
</g>
</svg>
